# xmcd
#
# Track frame offsets:
#	150
#	32449
#	69495
#	106864
#	137873
#	156099
#	173668
#
# Disc length: 2549 seconds
#
# Revision: 1
# Processed by: cddbd v1.5.2PL0 Copyright (c) Steve Scherf et al.
# Submitted via: audiograbber 1.83.01
#
DISCID=5109f307
DTITLE=Grateful Dead - 82-12-30 Oakland Auditorium Arena, Oakland CA
DYEAR=1900
DGENRE=
TTITLE0=Space
TTITLE1=Truckin'
TTITLE2=Stella Blue
TTITLE3=Going Down The Road Feeling Bad
TTITLE4=Johnny B Goode
TTITLE5=Hard To Handle
TTITLE6=Tell Mama
EXTD=
EXTT0=
EXTT1=
EXTT2=
EXTT3=
EXTT4=
EXTT5=
EXTT6=
PLAYORDER=
